<?xml version="1.0" encoding="utf-8"?>
<!-- Generator: Adobe Illustrator 28.0.0, SVG Export Plug-In . SVG Version: 6.00 Build 0)  -->
<svg version="1.1" id="Шар_1" xmlns="http://www.w3.org/2000/svg" xmlns:xlink="http://www.w3.org/1999/xlink" x="0px" y="0px"
	 viewBox="0 0 417.4 174.9" style="enable-background:new 0 0 417.4 174.9;" xml:space="preserve">
<style type="text/css">
	.st0{fill:#137287;}
	.st1{fill:#ECE2B1;}
	.st2{fill:none;}
	.st3{fill:#D7E1F4;}
	.st4{fill:#C2E3F7;}
	.st5{fill:#AAC5E8;}
</style>
<rect x="-291.3" y="-412.5" class="st0" width="1000" height="1000"/>
<g>
	<path class="st1" d="M191.8,61h-19.2l19.7-25.3c0.3-0.3,0.5-0.7,0.8-1.1c0.3-0.4,0.5-0.8,0.8-1.2c0.2-0.4,0.4-0.8,0.6-1.2
		c0.2-0.4,0.2-0.8,0.2-1.1c0-0.5-0.1-1-0.3-1.4c-0.2-0.4-0.5-0.8-0.8-1.2c-0.3-0.4-0.8-0.6-1.2-0.8c-0.5-0.2-1-0.3-1.6-0.3h-24.3
		c-0.6,0-1.1,0.1-1.6,0.3c-0.5,0.2-0.9,0.5-1.2,0.8c-0.3,0.4-0.6,0.8-0.8,1.2c-0.2,0.5-0.3,0.9-0.3,1.4c0,0.5,0.1,1,0.3,1.4
		c0.2,0.4,0.5,0.8,0.8,1.2c0.3,0.3,0.7,0.6,1.2,0.8c0.5,0.2,1,0.3,1.5,0.3l17.3,0c-1.6,2.1-3.3,4.3-5.1,6.5
		c-1.7,2.2-3.5,4.5-5.2,6.7c-1.8,2.2-3.5,4.5-5.2,6.7c-1.7,2.2-3.4,4.4-5,6.5c-0.6,0.9-1,1.7-1.3,2.6c-0.2,0.8-0.2,1.7,0.2,2.4
		c0.3,0.8,0.8,1.3,1.4,1.7c0.7,0.4,1.4,0.5,2.2,0.5h26.2c0.5,0,1-0.1,1.4-0.3c0.5-0.2,0.9-0.5,1.2-0.8c0.4-0.3,0.6-0.7,0.8-1.2
		c0.2-0.5,0.3-1,0.3-1.5c0-1.1-0.3-2-1-2.6C193.9,61.3,193,61,191.8,61z"/>
	<path class="st1" d="M201.5,31.5V64c0,1.3,0.4,2.4,1.1,3.2c0.7,0.8,1.8,1.2,3.1,1.2h21.4c0.6,0,1.1-0.1,1.6-0.3
		c0.5-0.2,0.9-0.4,1.3-0.8c0.4-0.3,0.6-0.7,0.9-1.2c0.2-0.5,0.3-1,0.3-1.5c0-0.6-0.1-1.1-0.3-1.6c-0.2-0.5-0.5-0.9-0.9-1.2
		c-0.4-0.3-0.8-0.6-1.3-0.7c-0.5-0.2-1-0.3-1.6-0.3H209v-9.5h14.2c0.8,0,1.5-0.2,2.1-0.6c0.6-0.4,1-1,1.3-1.7
		c0.2-0.6,0.3-1.2,0.1-1.7c-0.1-0.6-0.3-1-0.7-1.5c-0.3-0.4-0.8-0.8-1.3-1s-1.1-0.4-1.6-0.4H209v-9.8h18.3c0.8,0,1.6-0.2,2.1-0.5
		c0.6-0.4,1-0.8,1.2-1.3c0.3-0.5,0.4-1.1,0.4-1.7c0-0.6-0.1-1.2-0.4-1.7c-0.3-0.5-0.7-1-1.3-1.3c-0.6-0.4-1.3-0.5-2.1-0.5h-23.7
		c-1,0-1.6,0.1-1.9,0.4c-0.3,0.3-0.5,0.7-0.5,1.1c0,0.4,0.1,0.9,0.2,1.3C201.4,30.6,201.5,31.1,201.5,31.5z"/>
	<path class="st1" d="M236.8,31.1v33.5c0,0.5,0.1,1,0.3,1.5c0.2,0.5,0.5,0.9,0.8,1.2c0.3,0.3,0.7,0.6,1.2,0.8c0.5,0.2,1,0.3,1.5,0.3
		c0.5,0,1-0.1,1.5-0.3c0.5-0.2,0.9-0.5,1.2-0.8c0.3-0.3,0.6-0.7,0.8-1.2c0.2-0.5,0.3-1,0.3-1.5v-7h6.4c1.2,0,2.4-0.1,3.5-0.3
		l6.3,9.6c0.3,0.4,0.7,0.7,1.1,1c0.4,0.2,0.9,0.4,1.3,0.5c0.5,0.1,0.9,0,1.4-0.1c0.5-0.1,0.9-0.3,1.3-0.7c0.4-0.3,0.8-0.7,1-1.1
		c0.2-0.4,0.4-0.9,0.4-1.3c0.1-0.5,0-0.9-0.1-1.4c-0.1-0.5-0.4-0.9-0.7-1.3l-5.7-7.9c0.5-0.4,1-0.7,1.5-1.2c1.5-1.3,2.7-2.9,3.6-4.7
		c0.9-1.8,1.3-3.8,1.3-6s-0.4-4.2-1.3-6.1c-0.9-1.9-2.1-3.5-3.6-4.9c-1.5-1.4-3.2-2.5-5.2-3.3c-2-0.8-4.1-1.2-6.3-1.2h-11.7
		c-0.5,0-1,0-1.3,0.1c-0.3,0.1-0.6,0.2-0.8,0.3c-0.2,0.1-0.3,0.3-0.4,0.5c-0.1,0.2-0.1,0.4-0.1,0.6c0,0.4,0.1,0.8,0.2,1.2
		C236.7,30.2,236.8,30.6,236.8,31.1z M244.2,33.9h6.5c1.2,0,2.4,0.2,3.5,0.7c1.1,0.5,2,1.1,2.9,1.9c0.8,0.8,1.5,1.8,1.9,2.8
		c0.5,1.1,0.7,2.2,0.7,3.5c0,1.3-0.2,2.4-0.7,3.4c-0.5,1-1.1,1.9-1.9,2.6c-0.8,0.7-1.8,1.3-2.9,1.7c-1.1,0.4-2.2,0.6-3.5,0.6h-6.5
		V33.9z"/>
	<path class="st1" d="M308.7,37.5c-0.9-1.5-2-2.9-3.2-4.1c-1.2-1.2-2.6-2.3-4.1-3.2c-1.5-0.9-3.2-1.6-4.9-2.1
		c-1.7-0.5-3.6-0.7-5.4-0.7c-1.9,0-3.7,0.2-5.5,0.7c-1.7,0.5-3.4,1.2-4.9,2.1c-1.5,0.9-2.9,2-4.1,3.2c-1.2,1.2-2.3,2.6-3.2,4.1
		c-0.9,1.5-1.6,3.2-2.1,4.9c-0.5,1.7-0.7,3.6-0.7,5.4c0,2.8,0.5,5.5,1.6,8c1.1,2.5,2.5,4.7,4.4,6.5c1.9,1.9,4,3.3,6.5,4.4
		c2.5,1.1,5.2,1.6,8,1.6c1.9,0,3.7-0.2,5.4-0.7c1.7-0.5,3.4-1.2,4.9-2.1c1.5-0.9,2.9-2,4.1-3.2c1.2-1.2,2.3-2.6,3.2-4.1
		c0.9-1.5,1.6-3.2,2.1-4.9c0.5-1.7,0.7-3.6,0.7-5.5c0-1.9-0.2-3.7-0.7-5.4C310.3,40.6,309.6,39,308.7,37.5z M303,52.9
		c-0.7,1.6-1.6,3-2.8,4.2s-2.6,2.1-4.1,2.8c-1.6,0.7-3.3,1-5,1c-1.8,0-3.5-0.3-5.1-1c-1.6-0.7-3-1.6-4.1-2.8s-2.1-2.6-2.8-4.2
		c-0.7-1.6-1-3.3-1-5.1c0-1.8,0.3-3.5,1-5.1c0.7-1.6,1.6-3,2.8-4.2c1.2-1.2,2.5-2.1,4.1-2.8c1.6-0.7,3.3-1,5.1-1c1.8,0,3.5,0.3,5,1
		c1.6,0.7,3,1.6,4.1,2.8c1.2,1.2,2.1,2.6,2.8,4.1c0.7,1.6,1,3.3,1,5C304,49.6,303.7,51.3,303,52.9z"/>
	<path class="st1" d="M352.4,28.1c-0.4-0.3-0.9-0.5-1.4-0.6c-0.6-0.1-1.2-0.2-1.9-0.2c-0.7,0-1.3,0-1.8,0.1c-0.4,0.1-0.8,0.1-1,0.3
		c-0.2,0.1-0.4,0.3-0.4,0.5c-0.1,0.2-0.1,0.4-0.1,0.7c0,0.4,0.1,0.8,0.2,1.2s0.2,0.8,0.2,1.3l0,22.9l-21.4-25.2
		c-0.4-0.4-0.7-0.7-1-0.9c-0.3-0.2-0.7-0.4-1-0.6c-0.4-0.1-0.8-0.2-1.2-0.3c-0.4-0.1-0.9-0.1-1.5-0.1c-0.5,0-1,0-1.3,0.1
		c-0.3,0.1-0.6,0.2-0.8,0.3c-0.2,0.1-0.3,0.3-0.4,0.5c-0.1,0.2-0.1,0.4-0.1,0.6c0,0.4,0.1,0.9,0.2,1.3c0.1,0.4,0.2,0.8,0.2,1.2v33.3
		c0,0.5,0.1,1,0.3,1.5c0.2,0.5,0.5,0.9,0.8,1.2c0.3,0.3,0.7,0.6,1.2,0.8c0.5,0.2,1,0.3,1.5,0.3s1-0.1,1.5-0.3
		c0.4-0.2,0.8-0.5,1.2-0.8s0.6-0.7,0.8-1.2c0.2-0.5,0.3-1,0.3-1.5c0-1.7,0-3.6,0-5.6s0-4,0-6c0-2,0-4,0-6c0-2,0-3.8,0-5.6l21.4,25.1
		c0.4,0.5,0.9,0.9,1.5,1.3c0.6,0.4,1.2,0.5,1.8,0.5c0.6,0,1.1-0.1,1.5-0.3c0.5-0.2,0.9-0.5,1.2-0.9c0.3-0.4,0.6-0.8,0.7-1.3
		c0.2-0.5,0.3-1,0.3-1.6V31.1c0-0.7-0.1-1.3-0.3-1.8C353.1,28.8,352.8,28.4,352.4,28.1z"/>
	<path class="st1" d="M190.5,106.4c-0.3-0.2-0.5-0.3-0.8-0.4c-0.3-0.1-0.6-0.1-0.9-0.1c-0.3,0-0.6,0-0.9,0.1
		c-0.3,0.1-0.6,0.2-0.8,0.4c-0.6,0.5-1.2,1-1.8,1.5c-0.6,0.5-1.2,0.9-1.9,1.3c-0.7,0.4-1.4,0.7-2.1,0.9c-0.7,0.2-1.6,0.3-2.5,0.3
		c-1.4,0-2.7-0.3-4-0.8c-1.2-0.5-2.3-1.3-3.3-2.2c-0.9-0.9-1.7-2-2.2-3.3c-0.5-1.2-0.8-2.6-0.8-4c0-1.4,0.3-2.7,0.8-4
		c0.5-1.2,1.3-2.3,2.2-3.3c0.9-0.9,2-1.7,3.3-2.2c1.2-0.5,2.6-0.8,4-0.8c1.5,0,2.9,0.3,4.1,0.9c1.2,0.6,2.3,1.4,3.3,2.4
		c0.4,0.3,0.7,0.5,1.1,0.6c0.4,0.1,0.7,0.2,1.1,0.2c0.3,0,0.7-0.1,1-0.2c0.3-0.1,0.6-0.3,0.8-0.5c0.3-0.3,0.6-0.6,0.7-1
		c0.2-0.4,0.2-0.8,0.2-1.1c0-0.8-0.3-1.5-0.9-2.1c-0.8-0.9-1.7-1.7-2.5-2.3c-0.9-0.6-1.8-1.2-2.7-1.5c-0.9-0.4-1.9-0.7-2.9-0.9
		c-1-0.2-2.1-0.3-3.3-0.3c-1.5,0-2.9,0.2-4.3,0.6c-1.4,0.4-2.7,0.9-3.9,1.6s-2.3,1.5-3.3,2.5s-1.8,2.1-2.5,3.3
		c-0.7,1.2-1.2,2.5-1.6,3.9c-0.4,1.4-0.6,2.8-0.6,4.3c0,2.2,0.4,4.3,1.3,6.3c0.8,2,2,3.7,3.5,5.1c1.5,1.5,3.2,2.6,5.1,3.5
		c2,0.8,4.1,1.3,6.3,1.3c1.3,0,2.5-0.1,3.6-0.3s2.1-0.5,3.1-1c0.9-0.4,1.8-1,2.7-1.7c0.8-0.7,1.7-1.5,2.5-2.4c0.3-0.3,0.5-0.7,0.7-1
		c0.1-0.4,0.2-0.7,0.2-1.1c0-0.5-0.1-0.9-0.3-1.3S190.9,106.7,190.5,106.4z"/>
	<path class="st1" d="M218.3,110.8c-0.3-0.3-0.6-0.5-1-0.6c-0.4-0.1-0.7-0.2-1.1-0.2h-13.8V87.2c0-0.7-0.1-1.3-0.3-1.7
		c-0.2-0.5-0.5-0.8-0.9-1.1c-0.4-0.3-0.8-0.4-1.3-0.6c-0.5-0.1-1.1-0.2-1.7-0.2c-0.4,0-0.8,0-1,0.1c-0.3,0.1-0.5,0.1-0.6,0.2
		c-0.1,0.1-0.3,0.2-0.3,0.4c-0.1,0.2-0.1,0.3-0.1,0.5c0,0.3,0,0.6,0.1,0.9c0.1,0.3,0.1,0.7,0.2,1v25.7c0,0.5,0.1,0.9,0.3,1.4
		c0.2,0.4,0.4,0.8,0.7,1.1c0.3,0.3,0.6,0.5,1,0.7c0.4,0.2,0.8,0.3,1.3,0.3h16.6c0.4,0,0.7-0.1,1.1-0.2c0.3-0.1,0.6-0.3,0.9-0.6
		s0.5-0.6,0.6-0.9c0.2-0.4,0.2-0.8,0.2-1.2c0-0.4-0.1-0.8-0.3-1.2C218.8,111.3,218.6,111,218.3,110.8z"/>
	<path class="st1" d="M246.4,111c-0.3-0.3-0.6-0.4-1-0.6c-0.4-0.1-0.8-0.2-1.2-0.2h-14.2v-7.5h11.2c0.6,0,1.2-0.2,1.7-0.5
		c0.5-0.3,0.8-0.8,1-1.4c0.2-0.5,0.2-0.9,0.1-1.4c-0.1-0.4-0.3-0.8-0.5-1.2c-0.3-0.3-0.6-0.6-1-0.8c-0.4-0.2-0.8-0.3-1.3-0.3h-11.2
		v-7.7h14.4c0.7,0,1.2-0.1,1.7-0.4c0.4-0.3,0.8-0.6,1-1c0.2-0.4,0.3-0.9,0.3-1.4c0-0.5-0.1-0.9-0.3-1.4c-0.2-0.4-0.6-0.8-1-1
		c-0.4-0.3-1-0.4-1.6-0.4h-18.7c-0.8,0-1.3,0.1-1.5,0.3c-0.3,0.2-0.4,0.5-0.4,0.9c0,0.3,0,0.7,0.1,1c0.1,0.4,0.1,0.7,0.2,1v25.5
		c0,1,0.3,1.9,0.9,2.5c0.6,0.6,1.4,0.9,2.5,0.9h16.8c0.4,0,0.8-0.1,1.2-0.2c0.4-0.1,0.7-0.3,1-0.6c0.3-0.3,0.5-0.6,0.7-0.9
		c0.2-0.4,0.3-0.8,0.3-1.2c0-0.5-0.1-0.9-0.3-1.3S246.7,111.2,246.4,111z"/>
	<path class="st1" d="M307.9,84.5c-0.3-0.2-0.7-0.4-1.1-0.5c-0.4-0.1-0.9-0.1-1.5-0.1c-0.6,0-1,0-1.4,0.1c-0.3,0-0.6,0.1-0.8,0.2
		c-0.2,0.1-0.3,0.2-0.4,0.4c-0.1,0.2-0.1,0.3-0.1,0.6c0,0.3,0,0.7,0.1,1c0.1,0.3,0.1,0.7,0.1,1l0,18l-16.8-19.8
		c-0.3-0.3-0.6-0.5-0.8-0.7c-0.3-0.2-0.5-0.3-0.8-0.4c-0.3-0.1-0.6-0.2-0.9-0.2c-0.3,0-0.7-0.1-1.2-0.1c-0.4,0-0.8,0-1,0.1
		c-0.3,0.1-0.5,0.1-0.6,0.2c-0.1,0.1-0.3,0.2-0.3,0.4c-0.1,0.2-0.1,0.3-0.1,0.5c0,0.4,0,0.7,0.1,1c0.1,0.3,0.1,0.6,0.2,1v26.2
		c0,0.4,0.1,0.8,0.2,1.1c0.1,0.4,0.4,0.7,0.6,0.9c0.3,0.3,0.6,0.5,0.9,0.6c0.4,0.2,0.7,0.2,1.2,0.2s0.8-0.1,1.2-0.2
		c0.4-0.2,0.7-0.4,0.9-0.6c0.3-0.3,0.5-0.6,0.6-0.9c0.2-0.4,0.2-0.7,0.2-1.2c0-1.4,0-2.8,0-4.4s0-3.1,0-4.7c0-1.6,0-3.2,0-4.7
		c0-1.6,0-3,0-4.4l16.8,19.7c0.3,0.4,0.7,0.7,1.2,1c0.5,0.3,0.9,0.4,1.4,0.4c0.5,0,0.9-0.1,1.2-0.3c0.4-0.2,0.7-0.4,0.9-0.7
		c0.3-0.3,0.5-0.6,0.6-1c0.1-0.4,0.2-0.8,0.2-1.2v-26c0-0.6-0.1-1-0.3-1.4C308.4,85,308.2,84.7,307.9,84.5z"/>
	<path class="st1" d="M276.6,112.1l-10.1-25.2c-0.2-0.4-0.3-0.8-0.5-1.1c-0.4-0.8-1.1-1.4-2-1.8c-0.4-0.2-1-0.2-1.4,0
		c-0.8,0.3-1.6,1-2,1.8c-0.2,0.4-0.4,0.7-0.5,1.1l-10.1,25.2c-0.1,0.2-0.1,0.4-0.2,0.6c0,0.2-0.1,0.4-0.1,0.6c0,0.4,0.1,0.9,0.3,1.2
		c0.2,0.4,0.5,0.7,0.9,0.9c0.4,0.3,0.8,0.5,1.2,0.6c0.5,0.1,0.9,0.1,1.3-0.1c0.4-0.1,0.8-0.3,1.2-0.7c0.4-0.3,0.6-0.7,0.8-1.2
		l1.8-4.5h5.9h5.9l1.8,4.5c0.2,0.5,0.5,0.9,0.8,1.2c0.4,0.3,0.8,0.5,1.2,0.7c0.4,0.1,0.9,0.1,1.3,0.1c0.5-0.1,0.9-0.3,1.2-0.6
		c0.4-0.2,0.7-0.5,0.9-0.9c0.2-0.4,0.3-0.8,0.3-1.2c0-0.2,0-0.4-0.1-0.6C276.8,112.5,276.7,112.3,276.6,112.1z M263.4,104.8h-4.6
		l4.6-11.7l4.6,11.7H263.4z"/>
	<path class="st1" d="M392.5,63.6c0-0.3-0.1-0.5-0.2-0.7l-12.7-31.7c-0.2-0.5-0.4-1-0.7-1.4c-0.5-1-1.4-1.8-2.5-2.2
		c-0.6-0.2-1.2-0.2-1.8,0c-1,0.4-2,1.3-2.5,2.2c-0.2,0.5-0.5,0.9-0.7,1.4l-12.7,31.7c-0.1,0.2-0.2,0.5-0.2,0.7
		c0,0.3-0.1,0.5-0.1,0.7c0,0.6,0.1,1.1,0.4,1.6c0.3,0.5,0.6,0.9,1.1,1.2c0.5,0.4,1,0.7,1.6,0.8c0.6,0.1,1.1,0.1,1.7-0.1
		c0.5-0.2,1.1-0.4,1.5-0.8c0.5-0.4,0.8-0.9,1-1.6l2.3-5.7h7.4h7.4l2.3,5.7c0.2,0.6,0.6,1.2,1,1.6c0.5,0.4,1,0.7,1.5,0.8
		c0.5,0.2,1.1,0.2,1.7,0.1c0.6-0.1,1.1-0.4,1.6-0.8c0.5-0.3,0.9-0.7,1.1-1.2c0.3-0.5,0.4-1,0.4-1.6
		C392.6,64.1,392.5,63.9,392.5,63.6z M375.6,53.7h-5.8l5.8-14.7l5.8,14.7H375.6z"/>
</g>
<line class="st2" x1="826" y1="-412.5" x2="1826" y2="-412.5"/>
<g>
	<path class="st3" d="M168.1,142.1c-0.3,0-0.5-0.1-0.7-0.2c-0.2-0.2-0.2-0.4-0.2-0.7v-10h-3.7c-0.2,0-0.4-0.1-0.6-0.2
		c-0.1-0.1-0.2-0.3-0.2-0.6c0-0.2,0.1-0.4,0.2-0.6c0.1-0.1,0.3-0.2,0.6-0.2h9.2c0.3,0,0.5,0.1,0.6,0.2c0.1,0.1,0.2,0.3,0.2,0.6
		c0,0.2-0.1,0.4-0.2,0.6c-0.1,0.1-0.3,0.2-0.6,0.2H169v10c0,0.3-0.1,0.5-0.2,0.7C168.6,142,168.4,142.1,168.1,142.1z"/>
	<path class="st3" d="M177.1,142.1c-0.9,0-1.6-0.2-2.2-0.5c-0.6-0.4-1.1-0.9-1.5-1.5c-0.3-0.7-0.5-1.4-0.5-2.3
		c0-0.7,0.1-1.3,0.3-1.8s0.5-1,0.8-1.4c0.4-0.4,0.8-0.7,1.3-0.9s1.1-0.3,1.7-0.3c0.9,0,1.6,0.2,2.2,0.5c0.6,0.4,1.1,0.9,1.5,1.5
		c0.4,0.7,0.5,1.4,0.5,2.4c0,0.7-0.1,1.3-0.3,1.8s-0.5,1-0.9,1.4s-0.8,0.7-1.3,0.9C178.3,142,177.7,142.1,177.1,142.1z M177.1,140.7
		c0.5,0,0.9-0.1,1.3-0.4c0.4-0.2,0.6-0.6,0.8-1c0.2-0.5,0.3-1,0.3-1.7c0-1-0.2-1.8-0.7-2.3c-0.4-0.5-1-0.8-1.8-0.8
		c-0.5,0-0.9,0.1-1.3,0.3c-0.4,0.2-0.6,0.6-0.9,1c-0.2,0.5-0.3,1-0.3,1.7c0,1,0.2,1.8,0.7,2.3C175.7,140.5,176.3,140.7,177.1,140.7z
		"/>
	<path class="st3" d="M183.5,142c-0.2,0-0.3,0-0.5-0.1c-0.1-0.1-0.2-0.2-0.2-0.4c0-0.1,0-0.3,0-0.5s0.1-0.3,0.3-0.5l4.8-6.2v0.4
		h-4.5c-0.2,0-0.4-0.1-0.5-0.2c-0.1-0.1-0.2-0.3-0.2-0.5s0.1-0.4,0.2-0.5c0.1-0.1,0.3-0.2,0.5-0.2h5.3c0.2,0,0.4,0,0.5,0.1
		s0.2,0.2,0.3,0.4c0,0.1,0,0.3,0,0.5s-0.1,0.3-0.3,0.5l-4.8,6.3v-0.5h4.7c0.5,0,0.7,0.2,0.7,0.7c0,0.2-0.1,0.4-0.2,0.5
		c-0.1,0.1-0.3,0.2-0.5,0.2H183.5z"/>
	<path class="st3" d="M194,142.1c-0.6,0-1.1-0.1-1.6-0.4c-0.5-0.2-0.8-0.5-1.1-0.9s-0.4-0.8-0.4-1.3c0-0.6,0.2-1.1,0.5-1.5
		s0.9-0.6,1.6-0.8c0.7-0.2,1.7-0.2,3-0.2h0.8v1.1H196c-0.8,0-1.5,0-2,0.1s-0.8,0.2-1,0.4s-0.3,0.5-0.3,0.8c0,0.4,0.2,0.8,0.5,1.1
		s0.7,0.4,1.3,0.4c0.4,0,0.8-0.1,1.1-0.3s0.6-0.5,0.8-0.8c0.2-0.4,0.3-0.8,0.3-1.2v-2c0-0.7-0.1-1.1-0.4-1.4
		c-0.3-0.3-0.7-0.4-1.4-0.4c-0.4,0-0.8,0-1.2,0.1s-0.8,0.3-1.3,0.5c-0.2,0.1-0.4,0.1-0.5,0.1s-0.3-0.1-0.3-0.2
		c-0.1-0.1-0.1-0.3-0.1-0.4c0-0.1,0-0.3,0.1-0.4c0.1-0.1,0.2-0.2,0.4-0.3c0.5-0.2,1-0.4,1.5-0.5s1-0.2,1.4-0.2
		c0.8,0,1.4,0.1,1.9,0.4c0.5,0.2,0.9,0.6,1.1,1.1c0.2,0.5,0.4,1.2,0.4,1.9v4.5c0,0.3-0.1,0.5-0.2,0.7c-0.1,0.2-0.3,0.2-0.6,0.2
		s-0.5-0.1-0.6-0.2c-0.2-0.2-0.2-0.4-0.2-0.7V140h0.2c-0.1,0.4-0.3,0.8-0.5,1.1c-0.3,0.3-0.6,0.5-0.9,0.7
		C194.9,142,194.5,142.1,194,142.1z"/>
	<path class="st3" d="M203.4,142.1c-0.9,0-1.6-0.3-2.1-0.8s-0.7-1.3-0.7-2.3v-8.6c0-0.3,0.1-0.5,0.2-0.7c0.2-0.2,0.4-0.2,0.6-0.2
		c0.3,0,0.5,0.1,0.7,0.2c0.2,0.2,0.2,0.4,0.2,0.7v8.5c0,0.6,0.1,1,0.4,1.3c0.2,0.3,0.6,0.4,1,0.4c0.1,0,0.2,0,0.3,0s0.2,0,0.2,0
		c0.1,0,0.2,0,0.3,0.1s0.1,0.3,0.1,0.5s-0.1,0.4-0.2,0.6c-0.1,0.1-0.3,0.2-0.5,0.3c-0.1,0-0.2,0-0.3,0
		C203.6,142.1,203.5,142.1,203.4,142.1z"/>
	<path class="st3" d="M206.9,131.5c-0.4,0-0.6-0.1-0.8-0.3s-0.3-0.4-0.3-0.7s0.1-0.6,0.3-0.7c0.2-0.2,0.5-0.3,0.8-0.3
		c0.4,0,0.6,0.1,0.8,0.3s0.3,0.4,0.3,0.7s-0.1,0.6-0.3,0.7C207.5,131.4,207.3,131.5,206.9,131.5z M206.9,142.1
		c-0.3,0-0.5-0.1-0.6-0.3c-0.2-0.2-0.2-0.4-0.2-0.7v-6.8c0-0.3,0.1-0.5,0.2-0.7c0.2-0.2,0.4-0.2,0.6-0.2c0.3,0,0.5,0.1,0.7,0.2
		c0.2,0.2,0.2,0.4,0.2,0.7v6.8c0,0.3-0.1,0.5-0.2,0.7C207.4,142,207.2,142.1,206.9,142.1z"/>
	<path class="st3" d="M211.2,142.1c-0.3,0-0.5-0.1-0.6-0.2c-0.2-0.2-0.2-0.4-0.2-0.7v-10.8c0-0.3,0.1-0.5,0.2-0.7
		c0.2-0.2,0.4-0.2,0.6-0.2c0.3,0,0.5,0.1,0.7,0.2c0.2,0.2,0.2,0.4,0.2,0.7v6.8l0,0l3.3-3.3c0.2-0.2,0.4-0.3,0.5-0.4
		c0.2-0.1,0.4-0.2,0.6-0.2c0.2,0,0.4,0.1,0.6,0.2c0.1,0.1,0.2,0.3,0.2,0.5s-0.1,0.4-0.3,0.6l-3.5,3.4v-0.8l3.8,3.8
		c0.2,0.2,0.3,0.4,0.3,0.6c0,0.2-0.1,0.3-0.2,0.5s-0.3,0.2-0.5,0.2c-0.3,0-0.5-0.1-0.6-0.2c-0.2-0.1-0.3-0.3-0.6-0.5l-3.5-3.4l0,0
		v3.1C212.1,141.8,211.8,142.1,211.2,142.1z"/>
	<path class="st3" d="M219.4,138c-0.2,0-0.4-0.1-0.5-0.2c-0.1-0.1-0.2-0.3-0.2-0.5s0.1-0.4,0.2-0.5c0.1-0.1,0.3-0.2,0.5-0.2h3.9
		c0.2,0,0.4,0.1,0.5,0.2c0.1,0.1,0.2,0.3,0.2,0.5s-0.1,0.4-0.2,0.5c-0.1,0.1-0.3,0.2-0.5,0.2H219.4z"/>
	<path class="st3" d="M227.5,142c-0.3,0-0.6-0.1-0.7-0.3c-0.2-0.2-0.3-0.4-0.3-0.7v-10.4c0-0.3,0.1-0.6,0.3-0.7
		c0.2-0.2,0.4-0.3,0.7-0.3h4.2c0.9,0,1.6,0.1,2.2,0.4c0.6,0.3,1.1,0.6,1.4,1.1c0.3,0.5,0.5,1.1,0.5,1.7c0,0.7-0.2,1.4-0.7,1.9
		c-0.4,0.5-1,0.9-1.8,1v-0.3c0.9,0.1,1.5,0.4,2,1c0.5,0.5,0.7,1.2,0.7,2.1c0,1.1-0.4,1.9-1.1,2.5c-0.7,0.6-1.7,0.9-3.1,0.9h-4.3V142
		z M228.3,135h3.1c0.8,0,1.5-0.2,1.9-0.5s0.6-0.8,0.6-1.5s-0.2-1.2-0.6-1.5c-0.4-0.3-1.1-0.5-1.9-0.5h-3.1V135z M228.3,140.6h3.4
		c0.9,0,1.5-0.2,1.9-0.5s0.6-0.9,0.6-1.6s-0.2-1.2-0.6-1.6c-0.4-0.3-1.1-0.5-1.9-0.5h-3.4V140.6z"/>
	<path class="st3" d="M241,142.1c-0.6,0-1.1-0.1-1.6-0.4c-0.5-0.2-0.8-0.5-1.1-0.9s-0.4-0.8-0.4-1.3c0-0.6,0.2-1.1,0.5-1.5
		s0.9-0.6,1.6-0.8c0.7-0.2,1.7-0.2,3-0.2h0.8v1.1H243c-0.8,0-1.5,0-2,0.1s-0.8,0.2-1,0.4s-0.3,0.5-0.3,0.8c0,0.4,0.2,0.8,0.5,1.1
		s0.7,0.4,1.3,0.4c0.4,0,0.8-0.1,1.1-0.3s0.6-0.5,0.8-0.8c0.2-0.4,0.3-0.8,0.3-1.2v-2c0-0.7-0.1-1.1-0.4-1.4
		c-0.3-0.3-0.7-0.4-1.4-0.4c-0.4,0-0.8,0-1.2,0.1s-0.8,0.3-1.3,0.5c-0.2,0.1-0.4,0.1-0.5,0.1s-0.3-0.1-0.3-0.2
		c-0.1-0.1-0.1-0.3-0.1-0.4c0-0.1,0-0.3,0.1-0.4c0.1-0.1,0.2-0.2,0.4-0.3c0.5-0.2,1-0.4,1.5-0.5s1-0.2,1.4-0.2
		c0.8,0,1.4,0.1,1.9,0.4c0.5,0.2,0.9,0.6,1.1,1.1c0.2,0.5,0.4,1.2,0.4,1.9v4.5c0,0.3-0.1,0.5-0.2,0.7c-0.1,0.2-0.3,0.2-0.6,0.2
		s-0.5-0.1-0.6-0.2c-0.2-0.2-0.2-0.4-0.2-0.7V140h0.2c-0.1,0.4-0.3,0.8-0.5,1.1c-0.3,0.3-0.6,0.5-0.9,0.7
		C242,142,241.5,142.1,241,142.1z"/>
	<path class="st3" d="M248.6,142.1c-0.3,0-0.5-0.1-0.7-0.2c-0.2-0.2-0.2-0.4-0.2-0.7v-7c0-0.3,0.1-0.5,0.2-0.7
		c0.2-0.2,0.4-0.2,0.6-0.2c0.3,0,0.5,0.1,0.6,0.2c0.1,0.2,0.2,0.4,0.2,0.7v1.3h-0.2c0.2-0.7,0.5-1.2,1-1.6c0.5-0.4,1.1-0.6,1.9-0.6
		c0.2,0,0.4,0,0.5,0.2c0.1,0.1,0.2,0.3,0.2,0.5s0,0.4-0.2,0.6c-0.1,0.1-0.3,0.2-0.6,0.3h-0.3c-0.8,0.1-1.3,0.3-1.7,0.7
		s-0.6,1-0.6,1.7v4c0,0.3-0.1,0.5-0.2,0.7C249.2,142,248.9,142.1,248.6,142.1z"/>
	<path class="st3" d="M256.9,142.1c-0.6,0-1.1-0.1-1.6-0.4c-0.5-0.2-0.8-0.5-1.1-0.9s-0.4-0.8-0.4-1.3c0-0.6,0.2-1.1,0.5-1.5
		s0.9-0.6,1.6-0.8s1.7-0.2,3-0.2h0.8v1.1h-0.8c-0.8,0-1.5,0-2,0.1s-0.8,0.2-1,0.4c-0.2,0.2-0.3,0.5-0.3,0.8c0,0.4,0.2,0.8,0.5,1.1
		s0.7,0.4,1.3,0.4c0.4,0,0.8-0.1,1.1-0.3c0.3-0.2,0.6-0.5,0.8-0.8c0.2-0.4,0.3-0.8,0.3-1.2v-2c0-0.7-0.1-1.1-0.4-1.4
		c-0.3-0.3-0.7-0.4-1.4-0.4c-0.4,0-0.8,0-1.2,0.1c-0.4,0.1-0.8,0.3-1.3,0.5c-0.2,0.1-0.4,0.1-0.5,0.1s-0.3-0.1-0.3-0.2
		s-0.1-0.3-0.1-0.4c0-0.1,0-0.3,0.1-0.4c0.1-0.1,0.2-0.2,0.4-0.3c0.5-0.2,1-0.4,1.5-0.5s1-0.2,1.4-0.2c0.8,0,1.4,0.1,1.9,0.4
		c0.5,0.2,0.9,0.6,1.1,1.1s0.4,1.2,0.4,1.9v4.5c0,0.3-0.1,0.5-0.2,0.7s-0.3,0.2-0.6,0.2c-0.3,0-0.5-0.1-0.6-0.2
		c-0.2-0.2-0.2-0.4-0.2-0.7V140h0.2c-0.1,0.4-0.3,0.8-0.5,1.1c-0.3,0.3-0.6,0.5-0.9,0.7C257.8,142,257.4,142.1,256.9,142.1z"/>
	<path class="st3" d="M264.5,142.1c-0.3,0-0.5-0.1-0.6-0.2c-0.2-0.2-0.2-0.4-0.2-0.7v-10.8c0-0.3,0.1-0.5,0.2-0.7
		c0.2-0.2,0.4-0.2,0.6-0.2c0.3,0,0.5,0.1,0.7,0.2c0.2,0.2,0.2,0.4,0.2,0.7v6.8l0,0l3.3-3.3c0.2-0.2,0.4-0.3,0.5-0.4
		c0.2-0.1,0.4-0.2,0.6-0.2s0.4,0.1,0.6,0.2c0.1,0.1,0.2,0.3,0.2,0.5s-0.1,0.4-0.3,0.6l-3.5,3.4v-0.8l3.8,3.8
		c0.2,0.2,0.3,0.4,0.3,0.6c0,0.2-0.1,0.3-0.2,0.5c-0.1,0.1-0.3,0.2-0.5,0.2c-0.3,0-0.5-0.1-0.6-0.2c-0.2-0.1-0.3-0.3-0.6-0.5
		l-3.5-3.4l0,0v3.1C265.4,141.8,265.1,142.1,264.5,142.1z"/>
	<path class="st3" d="M275.3,142.1c-0.6,0-1.1-0.1-1.6-0.4c-0.5-0.2-0.8-0.5-1.1-0.9c-0.3-0.4-0.4-0.8-0.4-1.3
		c0-0.6,0.2-1.1,0.5-1.5s0.9-0.6,1.6-0.8s1.7-0.2,3-0.2h0.8v1.1h-0.8c-0.8,0-1.5,0-2,0.1s-0.8,0.2-1,0.4s-0.3,0.5-0.3,0.8
		c0,0.4,0.2,0.8,0.5,1.1s0.7,0.4,1.3,0.4c0.4,0,0.8-0.1,1.1-0.3s0.6-0.5,0.8-0.8c0.2-0.4,0.3-0.8,0.3-1.2v-2c0-0.7-0.1-1.1-0.4-1.4
		c-0.3-0.3-0.7-0.4-1.4-0.4c-0.4,0-0.8,0-1.2,0.1c-0.4,0.1-0.8,0.3-1.3,0.5c-0.2,0.1-0.4,0.1-0.5,0.1s-0.3-0.1-0.3-0.2
		c-0.1-0.1-0.1-0.3-0.1-0.4c0-0.1,0-0.3,0.1-0.4c0.1-0.1,0.2-0.2,0.4-0.3c0.5-0.2,1-0.4,1.5-0.5s1-0.2,1.4-0.2
		c0.8,0,1.4,0.1,1.9,0.4c0.5,0.2,0.9,0.6,1.1,1.1s0.4,1.2,0.4,1.9v4.5c0,0.3-0.1,0.5-0.2,0.7s-0.3,0.2-0.6,0.2
		c-0.3,0-0.5-0.1-0.6-0.2c-0.2-0.2-0.2-0.4-0.2-0.7V140h0.2c-0.1,0.4-0.3,0.8-0.5,1.1c-0.3,0.3-0.6,0.5-0.9,0.7
		C276.2,142,275.8,142.1,275.3,142.1z"/>
	<path class="st3" d="M284.7,142.1c-0.9,0-1.6-0.3-2.1-0.8s-0.7-1.3-0.7-2.3v-8.6c0-0.3,0.1-0.5,0.2-0.7c0.2-0.2,0.4-0.2,0.6-0.2
		c0.3,0,0.5,0.1,0.7,0.2c0.2,0.2,0.2,0.4,0.2,0.7v8.5c0,0.6,0.1,1,0.4,1.3c0.2,0.3,0.6,0.4,1,0.4c0.1,0,0.2,0,0.3,0
		c0.1,0,0.2,0,0.2,0c0.1,0,0.2,0,0.3,0.1c0.1,0.1,0.1,0.3,0.1,0.5s-0.1,0.4-0.2,0.6c-0.1,0.1-0.3,0.2-0.5,0.3c-0.1,0-0.2,0-0.3,0
		C284.9,142.1,284.8,142.1,284.7,142.1z"/>
	<path class="st3" d="M288.2,131.5c-0.4,0-0.6-0.1-0.8-0.3c-0.2-0.2-0.3-0.4-0.3-0.7s0.1-0.6,0.3-0.7c0.2-0.2,0.5-0.3,0.8-0.3
		s0.6,0.1,0.8,0.3c0.2,0.2,0.3,0.4,0.3,0.7s-0.1,0.6-0.3,0.7C288.8,131.4,288.6,131.5,288.2,131.5z M288.2,142.1
		c-0.3,0-0.5-0.1-0.6-0.3c-0.2-0.2-0.2-0.4-0.2-0.7v-6.8c0-0.3,0.1-0.5,0.2-0.7c0.2-0.2,0.4-0.2,0.6-0.2c0.3,0,0.5,0.1,0.7,0.2
		c0.2,0.2,0.2,0.4,0.2,0.7v6.8c0,0.3-0.1,0.5-0.2,0.7C288.7,142,288.5,142.1,288.2,142.1z"/>
	<path class="st3" d="M297.3,142.1c-0.3,0-0.5-0.1-0.7-0.2c-0.2-0.2-0.2-0.4-0.2-0.7v-10.7c0-0.3,0.1-0.5,0.2-0.7
		c0.2-0.2,0.4-0.2,0.7-0.2c0.3,0,0.5,0.1,0.7,0.2c0.2,0.2,0.2,0.4,0.2,0.7v4.5h6.9v-4.5c0-0.3,0.1-0.5,0.2-0.7
		c0.2-0.2,0.4-0.2,0.7-0.2c0.3,0,0.5,0.1,0.7,0.2c0.2,0.2,0.2,0.4,0.2,0.7v10.7c0,0.3-0.1,0.5-0.2,0.7c-0.2,0.2-0.4,0.2-0.7,0.2
		c-0.3,0-0.5-0.1-0.7-0.2c-0.2-0.2-0.2-0.4-0.2-0.7v-4.7h-6.9v4.7c0,0.3-0.1,0.5-0.2,0.7C297.9,142,297.6,142.1,297.3,142.1z"/>
	<path class="st3" d="M312.4,142.1c-0.6,0-1.1-0.1-1.6-0.4c-0.5-0.2-0.8-0.5-1.1-0.9c-0.3-0.4-0.4-0.8-0.4-1.3
		c0-0.6,0.2-1.1,0.5-1.5s0.9-0.6,1.6-0.8s1.7-0.2,3-0.2h0.8v1.1h-0.8c-0.8,0-1.5,0-2,0.1s-0.8,0.2-1,0.4s-0.3,0.5-0.3,0.8
		c0,0.4,0.2,0.8,0.5,1.1s0.7,0.4,1.3,0.4c0.4,0,0.8-0.1,1.1-0.3c0.3-0.2,0.6-0.5,0.8-0.8c0.2-0.4,0.3-0.8,0.3-1.2v-2
		c0-0.7-0.1-1.1-0.4-1.4c-0.3-0.3-0.7-0.4-1.4-0.4c-0.4,0-0.8,0-1.2,0.1c-0.4,0.1-0.8,0.3-1.3,0.5c-0.2,0.1-0.4,0.1-0.5,0.1
		s-0.3-0.1-0.3-0.2c-0.1-0.1-0.1-0.3-0.1-0.4c0-0.1,0-0.3,0.1-0.4c0.1-0.1,0.2-0.2,0.4-0.3c0.5-0.2,1-0.4,1.5-0.5s1-0.2,1.4-0.2
		c0.8,0,1.4,0.1,1.9,0.4c0.5,0.2,0.9,0.6,1.1,1.1s0.4,1.2,0.4,1.9v4.5c0,0.3-0.1,0.5-0.2,0.7s-0.3,0.2-0.6,0.2
		c-0.3,0-0.5-0.1-0.6-0.2c-0.2-0.2-0.2-0.4-0.2-0.7V140h0.2c-0.1,0.4-0.3,0.8-0.5,1.1c-0.3,0.3-0.6,0.5-0.9,0.7
		C313.3,142,312.9,142.1,312.4,142.1z"/>
	<path class="st3" d="M321,145.2c-0.2,0-0.4-0.1-0.5-0.2c-0.1-0.1-0.2-0.3-0.2-0.4c0-0.2,0-0.4,0.1-0.6l1.2-2.7v0.8l-3.3-7.6
		c-0.1-0.2-0.1-0.4-0.1-0.6c0-0.2,0.1-0.3,0.3-0.4c0.2-0.1,0.4-0.2,0.6-0.2s0.4,0.1,0.5,0.2c0.1,0.1,0.2,0.3,0.4,0.5l2.6,6.5h-0.5
		l2.7-6.5c0.1-0.3,0.2-0.5,0.4-0.6c0.1-0.1,0.3-0.1,0.6-0.1c0.2,0,0.4,0.1,0.5,0.2c0.1,0.1,0.2,0.3,0.2,0.4c0,0.2,0,0.4-0.1,0.6
		l-4.4,10.1c-0.1,0.3-0.2,0.4-0.4,0.5C321.4,145.2,321.3,145.2,321,145.2z"/>
	<path class="st3" d="M331.7,142.1c-0.9,0-1.6-0.2-2.2-0.5c-0.6-0.4-1.1-0.9-1.5-1.5c-0.3-0.7-0.5-1.4-0.5-2.3
		c0-0.7,0.1-1.3,0.3-1.8c0.2-0.5,0.5-1,0.8-1.4c0.4-0.4,0.8-0.7,1.3-0.9s1.1-0.3,1.7-0.3c0.9,0,1.6,0.2,2.2,0.5
		c0.6,0.4,1.1,0.9,1.5,1.5c0.4,0.7,0.5,1.4,0.5,2.4c0,0.7-0.1,1.3-0.3,1.8c-0.2,0.5-0.5,1-0.9,1.4s-0.8,0.7-1.3,0.9
		C332.9,142,332.3,142.1,331.7,142.1z M331.7,140.7c0.5,0,0.9-0.1,1.3-0.4c0.4-0.2,0.6-0.6,0.8-1c0.2-0.5,0.3-1,0.3-1.7
		c0-1-0.2-1.8-0.7-2.3c-0.4-0.5-1-0.8-1.8-0.8c-0.5,0-0.9,0.1-1.3,0.3s-0.6,0.6-0.9,1c-0.2,0.5-0.3,1-0.3,1.7c0,1,0.2,1.8,0.7,2.3
		C330.4,140.5,330.9,140.7,331.7,140.7z"/>
	<path class="st3" d="M341.4,142.1c-0.7,0-1.3-0.1-1.8-0.4c-0.5-0.2-0.8-0.6-1.1-1.1c-0.2-0.5-0.4-1.1-0.4-1.8v-4.1H337
		c-0.2,0-0.4-0.1-0.5-0.2c-0.1-0.1-0.2-0.3-0.2-0.5s0.1-0.4,0.2-0.5s0.3-0.2,0.5-0.2h1.1v-1.8c0-0.3,0.1-0.5,0.2-0.7
		c0.2-0.2,0.4-0.2,0.7-0.2c0.3,0,0.5,0.1,0.6,0.2c0.2,0.2,0.2,0.4,0.2,0.7v1.8h2.1c0.2,0,0.4,0.1,0.5,0.2c0.1,0.1,0.2,0.3,0.2,0.5
		s-0.1,0.4-0.2,0.5s-0.3,0.2-0.5,0.2H340v4c0,0.6,0.1,1.1,0.4,1.4c0.3,0.3,0.7,0.5,1.3,0.5c0.2,0,0.4,0,0.6-0.1
		c0.2,0,0.3-0.1,0.4-0.1s0.2,0,0.3,0.1c0.1,0.1,0.1,0.3,0.1,0.5s0,0.3-0.1,0.5s-0.2,0.3-0.3,0.3c-0.1,0-0.3,0.1-0.6,0.1
		C341.8,142.1,341.6,142.1,341.4,142.1z"/>
	<path class="st3" d="M349.9,142.1c-0.3,0-0.5-0.1-0.7-0.2c-0.2-0.2-0.2-0.4-0.2-0.7v-10.8c0-0.3,0.1-0.5,0.2-0.7
		c0.2-0.2,0.4-0.2,0.7-0.2c0.3,0,0.5,0.1,0.7,0.2c0.2,0.2,0.2,0.4,0.2,0.7v4.8l0,0l5.4-5.2c0.2-0.2,0.3-0.3,0.5-0.4
		c0.2-0.1,0.3-0.1,0.5-0.1c0.3,0,0.5,0.1,0.6,0.2c0.1,0.1,0.2,0.3,0.1,0.5s-0.1,0.4-0.3,0.5L352,136v-0.9l5.8,5.6
		c0.2,0.2,0.3,0.4,0.3,0.6c0,0.2-0.1,0.4-0.2,0.5s-0.3,0.2-0.6,0.2c-0.2,0-0.4,0-0.6-0.1c-0.1-0.1-0.3-0.2-0.5-0.4l-5.6-5.3l0,0v5
		c0,0.3-0.1,0.5-0.2,0.7C350.4,142,350.2,142.1,349.9,142.1z"/>
	<path class="st3" d="M362.8,142.1c-0.6,0-1.1-0.1-1.6-0.4c-0.5-0.2-0.8-0.5-1.1-0.9c-0.3-0.4-0.4-0.8-0.4-1.3
		c0-0.6,0.2-1.1,0.5-1.5s0.9-0.6,1.6-0.8s1.7-0.2,3-0.2h0.8v1.1h-0.8c-0.8,0-1.5,0-2,0.1s-0.8,0.2-1,0.4s-0.3,0.5-0.3,0.8
		c0,0.4,0.2,0.8,0.5,1.1s0.7,0.4,1.3,0.4c0.4,0,0.8-0.1,1.1-0.3s0.6-0.5,0.8-0.8c0.2-0.4,0.3-0.8,0.3-1.2v-2c0-0.7-0.1-1.1-0.4-1.4
		c-0.3-0.3-0.7-0.4-1.4-0.4c-0.4,0-0.8,0-1.2,0.1c-0.4,0.1-0.8,0.3-1.3,0.5c-0.2,0.1-0.4,0.1-0.5,0.1s-0.3-0.1-0.3-0.2
		s-0.1-0.3-0.1-0.4c0-0.1,0-0.3,0.1-0.4c0.1-0.1,0.2-0.2,0.4-0.3c0.5-0.2,1-0.4,1.5-0.5s1-0.2,1.4-0.2c0.8,0,1.4,0.1,1.9,0.4
		c0.5,0.2,0.9,0.6,1.1,1.1s0.4,1.2,0.4,1.9v4.5c0,0.3-0.1,0.5-0.2,0.7s-0.3,0.2-0.6,0.2c-0.3,0-0.5-0.1-0.6-0.2
		c-0.2-0.2-0.2-0.4-0.2-0.7V140h0.2c-0.1,0.4-0.3,0.8-0.5,1.1c-0.3,0.3-0.6,0.5-0.9,0.7C363.7,142,363.3,142.1,362.8,142.1z"/>
	<path class="st3" d="M372.2,142.1c-0.9,0-1.6-0.3-2.1-0.8s-0.7-1.3-0.7-2.3v-8.6c0-0.3,0.1-0.5,0.2-0.7c0.2-0.2,0.4-0.2,0.6-0.2
		c0.3,0,0.5,0.1,0.7,0.2c0.2,0.2,0.2,0.4,0.2,0.7v8.5c0,0.6,0.1,1,0.4,1.3c0.2,0.3,0.6,0.4,1,0.4c0.1,0,0.2,0,0.3,0
		c0.1,0,0.2,0,0.2,0c0.1,0,0.2,0,0.3,0.1c0.1,0.1,0.1,0.3,0.1,0.5s-0.1,0.4-0.2,0.6c-0.1,0.1-0.3,0.2-0.5,0.3c-0.1,0-0.2,0-0.3,0
		C372.5,142.1,372.4,142.1,372.2,142.1z"/>
	<path class="st3" d="M375.7,131.5c-0.4,0-0.6-0.1-0.8-0.3c-0.2-0.2-0.3-0.4-0.3-0.7s0.1-0.6,0.3-0.7c0.2-0.2,0.5-0.3,0.8-0.3
		s0.6,0.1,0.8,0.3c0.2,0.2,0.3,0.4,0.3,0.7s-0.1,0.6-0.3,0.7C376.4,131.4,376.1,131.5,375.7,131.5z M375.7,142.1
		c-0.3,0-0.5-0.1-0.6-0.3c-0.2-0.2-0.2-0.4-0.2-0.7v-6.8c0-0.3,0.1-0.5,0.2-0.7c0.2-0.2,0.4-0.2,0.6-0.2c0.3,0,0.5,0.1,0.7,0.2
		c0.2,0.2,0.2,0.4,0.2,0.7v6.8c0,0.3-0.1,0.5-0.2,0.7C376.3,142,376,142.1,375.7,142.1z"/>
	<path class="st3" d="M382.8,142.1c-0.7,0-1.3-0.1-1.8-0.4c-0.5-0.2-0.8-0.6-1.1-1.1c-0.2-0.5-0.4-1.1-0.4-1.8v-4.1h-1.1
		c-0.2,0-0.4-0.1-0.5-0.2c-0.1-0.1-0.2-0.3-0.2-0.5s0.1-0.4,0.2-0.5s0.3-0.2,0.5-0.2h1.1v-1.8c0-0.3,0.1-0.5,0.2-0.7
		c0.2-0.2,0.4-0.2,0.7-0.2c0.3,0,0.5,0.1,0.6,0.2c0.2,0.2,0.2,0.4,0.2,0.7v1.8h2.1c0.2,0,0.4,0.1,0.5,0.2c0.1,0.1,0.2,0.3,0.2,0.5
		s-0.1,0.4-0.2,0.5s-0.3,0.2-0.5,0.2h-2.1v4c0,0.6,0.1,1.1,0.4,1.4c0.3,0.3,0.7,0.5,1.3,0.5c0.2,0,0.4,0,0.6-0.1
		c0.2,0,0.3-0.1,0.4-0.1s0.2,0,0.3,0.1c0.1,0.1,0.1,0.3,0.1,0.5s0,0.3-0.1,0.5s-0.2,0.3-0.3,0.3c-0.1,0-0.3,0.1-0.6,0.1
		C383.2,142.1,383,142.1,382.8,142.1z"/>
	<path class="st3" d="M386.6,131.5c-0.4,0-0.6-0.1-0.8-0.3c-0.2-0.2-0.3-0.4-0.3-0.7s0.1-0.6,0.3-0.7c0.2-0.2,0.5-0.3,0.8-0.3
		c0.4,0,0.6,0.1,0.8,0.3c0.2,0.2,0.3,0.4,0.3,0.7s-0.1,0.6-0.3,0.7C387.2,131.4,386.9,131.5,386.6,131.5z M386.6,142.1
		c-0.3,0-0.5-0.1-0.6-0.3c-0.2-0.2-0.2-0.4-0.2-0.7v-6.8c0-0.3,0.1-0.5,0.2-0.7c0.2-0.2,0.4-0.2,0.6-0.2c0.3,0,0.5,0.1,0.7,0.2
		c0.2,0.2,0.2,0.4,0.2,0.7v6.8c0,0.3-0.1,0.5-0.2,0.7C387.1,142,386.8,142.1,386.6,142.1z"/>
	<path class="st3" d="M390.8,142c-0.3,0-0.6-0.1-0.8-0.3c-0.2-0.2-0.3-0.5-0.3-0.8s0.1-0.6,0.3-0.8c0.2-0.2,0.5-0.3,0.8-0.3
		s0.6,0.1,0.8,0.3s0.3,0.5,0.3,0.8s-0.1,0.6-0.3,0.8S391.1,142,390.8,142z M390.8,138.6c-0.2,0-0.3-0.1-0.4-0.2s-0.2-0.3-0.2-0.5
		l-0.4-7.3c0-0.4,0.1-0.6,0.2-0.8c0.2-0.2,0.4-0.3,0.8-0.3c0.3,0,0.6,0.1,0.8,0.3c0.2,0.2,0.2,0.5,0.2,0.8l-0.4,7.3
		c0,0.2-0.1,0.4-0.2,0.5C391.1,138.6,391,138.6,390.8,138.6z"/>
</g>
<g>
	<path class="st3" d="M68.4,27.8H28.8v39.6c0,8.7,7,15.7,15.7,15.7h39.6V43.5C84.1,34.8,77,27.8,68.4,27.8z"/>
	<path class="st3" d="M28.8,104.6v39.6h39.6c8.7,0,15.7-7,15.7-15.7V88.9H44.5C35.8,88.9,28.8,95.9,28.8,104.6z"/>
	<path class="st3" d="M128.9,88.9H89.3v39.6c0,8.7,7,15.7,15.7,15.7h39.6v-39.6C144.6,95.9,137.6,88.9,128.9,88.9z"/>
	<path class="st3" d="M104.9,27.8c-8.6,0-15.6,7-15.6,15.6v39.7H129c8.6,0,15.6-7,15.6-15.6V27.8H104.9z"/>
</g>
<g>
	<g>
		<g id="_x36_13_x2C__Broom_x2C__Clean_x2C__Cleaning_x2C__Sweep_00000124160397099340008160000010967979269253144974_">
			<g id="XMLID_00000146499928332607097130000009685158981568687284_">
				<g id="XMLID_00000157286802272672408850000012767737370876438203_">
					<g>
						<g>
							<g>
								<path class="st4" d="M68.8,36.7c1.2,0,2.2,1,2.2,2.2s-1,2.2-2.2,2.2s-2.2-1-2.2-2.2C66.5,37.7,67.5,36.7,68.8,36.7z"/>
							</g>
							<g>
								<path class="st4" d="M55.7,43.8c1,0,1.8,0.8,1.8,1.8s-0.8,1.8-1.8,1.8s-1.8-0.8-1.8-1.8S54.7,43.8,55.7,43.8z"/>
							</g>
							<g>
								<path class="st4" d="M50.3,38.9V59h-0.4h-2h-0.4V38.9c0-0.7,0.6-1.4,1.4-1.4c0.4,0,0.7,0.1,0.9,0.4
									C50.1,38.2,50.3,38.5,50.3,38.9z"/>
							</g>
							<g>
								<path class="st4" d="M52.1,61.2v1.4h-6.4v-1.4c0-1.2,1-2.1,2.2-2.1h2C51.1,59.1,52.1,60,52.1,61.2z"/>
							</g>
							<g>
								<path class="st4" d="M72.3,52.4c0.4,0.4,0.5,0.8,0.5,1.3c0,1-0.8,1.8-1.8,1.8H54.8c-0.5,0-0.9-0.2-1.3-0.5
									c-0.4-0.4-0.5-0.8-0.5-1.3c0-1,0.8-1.8,1.8-1.8h16.3C71.6,51.9,72,52.1,72.3,52.4z"/>
							</g>
							<g>
								<polygon class="st4" points="59.3,66.2 60.2,66.2 60.2,62.7 56.1,62.7 54.8,55.5 71.1,55.5 69.4,64.7 68.3,70.7 59.3,70.7 
																	"/>
							</g>
							<g>
								<polygon class="st4" points="59.3,66.2 59.3,70.7 57.5,70.7 38.5,70.7 38.5,66.2 56.8,66.2 								"/>
							</g>
							<g>
								<polygon class="st4" points="60.2,62.7 60.2,66.2 59.3,66.2 56.8,66.2 38.5,66.2 37.6,66.2 37.6,62.7 45.8,62.7 52.1,62.7 
									56.1,62.7 								"/>
							</g>
						</g>
					</g>
					<g>
						<g>
							<g>
								<path class="st0" d="M52.1,63.5c-0.5,0-0.9-0.4-0.9-0.9v-1.4c0-0.7-0.6-1.3-1.3-1.3c-0.5,0-0.9-0.4-0.9-0.9s0.4-0.9,0.9-0.9
									c1.7,0,3.1,1.4,3.1,3.1v1.4C53,63.1,52.6,63.5,52.1,63.5z"/>
							</g>
							<g>
								<path class="st0" d="M45.8,63.5c-0.5,0-0.9-0.4-0.9-0.9v-1.4c0-1.7,1.4-3.1,3.1-3.1c0.5,0,0.9,0.4,0.9,0.9s-0.4,0.9-0.9,0.9
									c-0.7,0-1.3,0.6-1.3,1.3v1.4C46.6,63.1,46.3,63.5,45.8,63.5z"/>
							</g>
							<g>
								<path class="st0" d="M50.3,59.9h-2.7c-0.5,0-0.9-0.4-0.9-0.9V38.9c0-1.2,1-2.2,2.2-2.2c0.6,0,1.2,0.2,1.6,0.6
									c0.4,0.4,0.7,1,0.7,1.6V59C51.2,59.5,50.8,59.9,50.3,59.9z M48.5,58.2h0.9V38.9c0-0.1-0.1-0.3-0.1-0.3
									c-0.1-0.1-0.2-0.1-0.3-0.1c-0.2,0-0.4,0.2-0.4,0.4L48.5,58.2L48.5,58.2z"/>
							</g>
							<g>
								<path class="st0" d="M68.3,71.6h-9c-0.5,0-0.9-0.4-0.9-0.9s0.4-0.9,0.9-0.9h8.3l2.6-14.5c0.1-0.5,0.5-0.5,1-0.4
									s0.8,0.3,0.8,0.7l-2.7,15.2C69.1,71.3,68.8,71.6,68.3,71.6z"/>
							</g>
							<g>
								<path class="st0" d="M56.1,63.5c-0.4,0-0.8-0.3-0.9-0.7l-1.4-7.2c-0.1-0.5,0.2-0.7,0.7-0.8s0.9,0,1.1,0.5l1.4,7.2
									c0.1,0.5-0.2,0.9-0.7,1.1C56.3,63.5,56.2,63.5,56.1,63.5z"/>
							</g>
							<g>
								<path class="st0" d="M60.2,67.1h-0.9c-0.5,0-0.9-0.4-0.9-0.9s0.4-0.9,0.9-0.9v-1.7H38.5v1.8c0.5,0,0.9,0.4,0.9,0.9
									s-0.4,0.9-0.9,0.9h-0.9c-0.5,0-0.9-0.4-0.9-0.9v-3.6c0-0.5,0.4-0.9,0.9-0.9h22.6c0.5,0,0.9,0.4,0.9,0.9v3.6
									C61.1,66.7,60.7,67.1,60.2,67.1z"/>
							</g>
							<g>
								<path class="st0" d="M59.3,71.6H38.5c-0.5,0-0.9-0.4-0.9-0.9v-4.5c0-0.5,0.4-0.9,0.9-0.9h20.8c0.5,0,0.9,0.4,0.9,0.9v4.5
									C60.2,71.2,59.8,71.6,59.3,71.6z M39.4,69.8h19v-2.7h-19V69.8z"/>
							</g>
							<g>
								<path class="st0" d="M71.1,56.4H54.8c-0.7,0-1.4-0.3-2-0.8c-0.5-0.5-0.8-1.2-0.8-1.9c0-1.5,1.2-2.7,2.7-2.7H71
									c0.7,0,1.4,0.3,2,0.8c0.5,0.5,0.8,1.2,0.8,1.9C73.8,55.2,72.5,56.4,71.1,56.4z M54.8,52.8c-0.5,0-0.9,0.4-0.9,0.9
									c0,0.2,0.1,0.4,0.3,0.6c0.1,0.1,0.4,0.3,0.7,0.3h16.3c0.5,0,0.9-0.4,0.9-0.9c0-0.2-0.1-0.4-0.3-0.6
									c-0.2-0.2-0.4-0.3-0.7-0.3H54.8z"/>
							</g>
							<g>
								<path class="st0" d="M72,66.9c-1,0-2-0.4-2.7-1l-0.5-0.5l-7.4-6.6c-0.4-0.4-0.4-0.9-0.1-1.3c0.4-0.4,0.9-0.4,1.3-0.1
									l7.9,7.1c0.5,0.4,1.2,0.6,1.9,0.5c1.1-0.1,1.9-1.1,1.9-2.1c0-0.3-0.1-0.6-0.2-0.9L73,59.4c-0.2-0.4,0-1,0.5-1.1
									c0.4-0.2,1,0,1.2,0.5l1.2,2.6c0.2,0.5,0.4,1,0.4,1.6c0,1.9-1.4,3.7-3.4,3.9C72.5,66.9,72.2,66.9,72,66.9z"/>
							</g>
							<g>
								<path class="st0" d="M55.7,48.3c-1.5,0-2.7-1.2-2.7-2.7s1.2-2.7,2.7-2.7s2.7,1.2,2.7,2.7S57.2,48.3,55.7,48.3z M55.7,44.8
									c-0.5,0-0.9,0.4-0.9,0.9s0.4,0.9,0.9,0.9s0.9-0.4,0.9-0.9C56.6,45.2,56.2,44.8,55.7,44.8z"/>
							</g>
							<g>
								<path class="st0" d="M40.8,56.4c-1.2,0-2.2-1-2.2-2.2s1-2.2,2.2-2.2s2.2,1,2.2,2.2S42,56.4,40.8,56.4z M40.8,53.7
									c-0.2,0-0.4,0.2-0.4,0.4s0.2,0.4,0.4,0.4s0.4-0.2,0.4-0.4S41,53.7,40.8,53.7z"/>
							</g>
							<g>
								<path class="st0" d="M68.8,42c-1.7,0-3.2-1.4-3.2-3.1s1.4-3.1,3.2-3.1s3.2,1.4,3.2,3.1S70.6,42,68.8,42z M68.8,37.6
									c-0.7,0-1.4,0.6-1.4,1.4c0,0.8,0.6,1.4,1.4,1.4s1.4-0.6,1.4-1.4C70.1,38.2,69.6,37.6,68.8,37.6z"/>
							</g>
						</g>
					</g>
				</g>
			</g>
		</g>
		<g id="Layer_1_00000116944006195014434660000015980199669094817461_">
		</g>
	</g>
</g>
<g>
	<g>
		<g>
			<g id="_x36_22_x2C__Broom_x2C__Clean_x2C__Cleaning_x2C__Sweep_00000127025431342884701810000002892301461904581040_">
				<g id="XMLID_00000170981072745300302720000009418345648079345826_">
					<g id="XMLID_00000066487235090244545100000006887496215638960302_">
						<g>
							<g>
								<g>
									<path class="st4" d="M105.6,35.4c1.1,0,1.9,0.8,1.9,1.9c0,1.1-0.8,1.9-1.9,1.9s-1.9-0.8-1.9-1.9
										C103.6,36.2,104.5,35.4,105.6,35.4z"/>
								</g>
								<g>
									<path class="st4" d="M98.9,43.9c1.6,0,2.9,1.3,2.9,2.9c0,1.6-1.3,2.9-2.9,2.9S96,48.4,96,46.8
										C95.9,45.2,97.2,43.9,98.9,43.9z"/>
								</g>
								<g>
									<path class="st4" d="M129.7,37.3c1.1,0,1.9,0.8,1.9,1.9c0,1.1-0.8,1.9-1.9,1.9c-1.1,0-1.9-0.8-1.9-1.9
										C127.8,38.1,128.6,37.3,129.7,37.3z"/>
								</g>
								<g>
									<path class="st4" d="M128.2,57.3c-1.9,0-3.4-1.5-3.4-3.4c0-1.2,0.6-2.2,1.6-2.8c0.5-0.3,1.2-0.5,1.8-0.5
										c1.9,0,3.4,1.5,3.4,3.4c0,1.5-1,2.7-2.4,3.2C128.9,57.2,128.6,57.3,128.2,57.3z"/>
								</g>
								<g>
									<rect x="115.2" y="33.5" class="st4" width="3.9" height="10.5"/>
								</g>
								<g>
									<path class="st4" d="M115.1,47.8c-0.8,0-1.5,0.1-2.3,0.2v-4h2.4h3.9h2.4v4.2c-0.9-0.2-1.9-0.4-2.8-0.4H115.1z"/>
								</g>
								<g>
									<path class="st4" d="M121.5,48.1c1.9,0.5,3.6,1.6,4.9,3c-0.9,0.6-1.6,1.6-1.6,2.8c0,1.8,1.5,3.4,3.4,3.4
										c0.4,0,0.7-0.1,1-0.2l3.4,16.4h-3.9l-3.9-6.7l-2.9,6.7h-4.8h-3.9h-4.9h-6.7l2.9-16.5c0.5-4.5,3.9-8.1,8.2-9
										c0.8-0.2,1.5-0.2,2.3-0.2h3.6C119.6,47.8,120.6,47.9,121.5,48.1z"/>
								</g>
							</g>
						</g>
						<g>
							<g>
								<g>
									<path class="st0" d="M119.1,44.6c-0.5,0-1-0.4-1-1v-9.3h-1.9v9.3c0,0.5-0.5,1-1,1s-1-0.4-1-1V33.4c0-0.5,0.5-1,1-1h3.9
										c0.5,0,1,0.4,1,1v10.2C120.1,44.1,119.6,44.6,119.1,44.6z"/>
								</g>
								<g>
									<path class="st0" d="M121.5,49.1c-0.5,0-1-0.5-1-1v-3.2h-6.8V48c0,0.5-0.5,1-1,1s-1-0.5-1-1v-4c0-0.5,0.5-1,1-1h8.7
										c0.5,0,1,0.5,1,1v4.2C122.5,48.7,122,49.1,121.5,49.1z"/>
								</g>
								<g>
									<path class="st0" d="M117.1,74.5c-0.5,0-1-0.5-1-1V64c0-0.5,0.5-1,1-1s1,0.5,1,1v9.5C118.1,74,117.7,74.5,117.1,74.5z"/>
								</g>
								<g>
									<path class="st0" d="M113.3,74.5c-0.5,0-1-0.5-1-1v-5.7c0-0.5,0.5-1,1-1s1,0.5,1,1v5.7C114.3,74,113.8,74.5,113.3,74.5z"/>
								</g>
								<g>
									<path class="st0" d="M108.5,74.5c-0.5,0-1-0.5-1-1v-8.6c0-0.5,0.5-1,1-1s0.9,0.5,0.9,1v8.6C109.4,74,109,74.5,108.5,74.5z"
										/>
								</g>
								<g>
									<path class="st0" d="M98.9,50.7c-2.2,0-3.9-1.7-3.9-3.8s1.7-3.8,3.9-3.8c2.2,0,3.9,1.7,3.9,3.8
										C102.7,49,100.9,50.7,98.9,50.7z M98.9,44.9c-1.1,0-1.9,0.8-1.9,1.9c0,1.1,0.8,1.9,1.9,1.9s1.9-0.8,1.9-1.9
										C100.8,45.8,99.9,44.9,98.9,44.9z"/>
								</g>
								<g>
									<path class="st0" d="M129.7,42c-1.6,0-2.9-1.3-2.9-2.9c0-1.6,1.3-2.9,2.9-2.9s2.9,1.3,2.9,2.9
										C132.6,40.7,131.3,42,129.7,42z M129.7,38.2c-0.5,0-1,0.5-1,1s0.5,1,1,1s1-0.5,1-1C130.6,38.7,130.2,38.2,129.7,38.2z"/>
								</g>
								<g>
									<path class="st0" d="M105.6,40.1c-1.6,0-2.9-1.3-2.9-2.9c0-1.6,1.3-2.8,2.9-2.8s2.9,1.3,2.9,2.9S107.2,40.1,105.6,40.1z
										 M105.6,36.3c-0.5,0-1,0.5-1,1s0.5,1,1,1s1-0.5,1-1S106.1,36.3,105.6,36.3z"/>
								</g>
								<g>
									<path class="st0" d="M132.6,74.5h-3.9c-0.3,0-0.7-0.2-0.8-0.5l-2.9-5l-2.2,4.9c-0.2,0.4-0.5,0.6-0.8,0.6h-20.2
										c-0.3,0-0.5-0.2-0.8-0.3c-0.2-0.2-0.2-0.5-0.2-0.8l2.9-16.4c0.5-4.8,4.2-8.8,8.9-9.9c0.8-0.2,1.7-0.3,2.5-0.3h3.6
										c1,0,2.1,0.2,3.1,0.4c2.1,0.5,3.9,1.7,5.4,3.3c0.4,0.4,0.3,1-0.1,1.4s-1,0.3-1.4-0.1c-1.2-1.3-2.8-2.2-4.6-2.7
										c-0.8-0.2-1.7-0.3-2.5-0.3h-3.5c-0.7,0-1.4,0.1-2.1,0.2c-4,0.9-7,4.2-7.5,8.2c0,0,0,0,0,0.1l-2.6,15.3h18.4l2.6-6.1
										c0.2-0.3,0.5-0.5,0.8-0.6c0.4,0,0.7,0.2,0.9,0.5l3.5,6.2h2.1l-3.1-15.3c-0.1-0.5,0.3-0.7,0.8-0.8s1-0.1,1.1,0.5l3.3,16.5
										c0.1,0.3,0,0.5-0.2,0.8C133.1,74.3,132.9,74.5,132.6,74.5z"/>
								</g>
								<g>
									<path class="st0" d="M128.2,58.3c-2.4,0-4.3-1.9-4.3-4.3c0-1.5,0.8-2.8,2.1-3.7c0.7-0.5,1.5-0.6,2.3-0.6
										c2.4,0,4.3,1.9,4.3,4.3c0,1.9-1.2,3.5-3,4.1C129.1,58.2,128.6,58.3,128.2,58.3z M128.2,51.6c-0.5,0-0.9,0.2-1.3,0.4
										c-0.7,0.5-1.2,1.2-1.2,2.1c0,1.3,1.1,2.4,2.4,2.4c0.2,0,0.5,0,0.7-0.1c1-0.3,1.7-1.2,1.7-2.3
										C130.6,52.6,129.6,51.6,128.2,51.6z"/>
								</g>
							</g>
						</g>
					</g>
				</g>
			</g>
			<g id="Layer_1_00000023980301398504405630000014483332077475003312_">
			</g>
		</g>
	</g>
</g>
<g>
	<g>
		<g>
			<g id="_x37_29_x2C__Building_x2C__Estate_x2C__Real_00000123412609092494611340000002760457772772043194_">
				<g>
					<polygon class="st4" points="62.3,105.8 49.1,105.8 46.9,105.8 46.9,110.9 46.9,113.1 46.9,133.5 64.4,133.5 64.4,113.1 
						64.4,110.9 64.4,105.8 					"/>
					<path class="st5" d="M70.3,102.2c0.8,0,1.5,0.6,1.5,1.5c0,0.8-0.6,1.5-1.5,1.5c-0.8,0-1.5-0.6-1.5-1.5
						C68.8,102.8,69.4,102.2,70.3,102.2z"/>
					<path class="st5" d="M41.4,104.3c0.6,0,1.1,0.5,1.1,1.1s-0.5,1.1-1.1,1.1s-1.1-0.5-1.1-1.1C40.3,104.8,40.8,104.3,41.4,104.3z"
						/>
					<rect x="49.8" y="124.1" class="st3" width="2.9" height="2.9"/>
					<rect x="55.7" y="124.1" class="st3" width="2.9" height="2.9"/>
					<rect x="58.6" y="121.2" class="st3" width="2.9" height="2.9"/>
					<rect x="52.7" y="121.2" class="st3" width="2.9" height="2.9"/>
					<rect x="55.7" y="118.2" class="st3" width="2.9" height="2.9"/>
					<rect x="49.8" y="118.2" class="st3" width="2.9" height="2.9"/>
					<rect x="52.7" y="115.3" class="st3" width="2.9" height="2.9"/>
					<rect x="58.6" y="115.3" class="st3" width="2.9" height="2.9"/>
					<rect x="58.6" y="109.5" class="st4" width="2.9" height="2.9"/>
					<rect x="55.7" y="112.4" class="st4" width="2.9" height="2.9"/>
					<rect x="49.8" y="112.4" class="st4" width="2.9" height="2.9"/>
					<rect x="52.7" y="109.5" class="st4" width="2.9" height="2.9"/>
					<rect x="58.6" y="124.1" class="st3" width="2.9" height="2.9"/>
					<rect x="52.7" y="124.1" class="st3" width="2.9" height="2.9"/>
					<rect x="49.8" y="121.2" class="st3" width="2.9" height="2.9"/>
					<rect x="55.7" y="121.2" class="st3" width="2.9" height="2.9"/>
					<rect x="58.6" y="118.2" class="st3" width="2.9" height="2.9"/>
					<rect x="52.7" y="118.2" class="st3" width="2.9" height="2.9"/>
					<rect x="49.8" y="115.3" class="st3" width="2.9" height="2.9"/>
					<rect x="55.7" y="115.3" class="st3" width="2.9" height="2.9"/>
					<rect x="58.6" y="112.4" class="st4" width="2.9" height="2.9"/>
					<rect x="55.7" y="109.5" class="st4" width="2.9" height="2.9"/>
					<rect x="52.7" y="112.4" class="st4" width="2.9" height="2.9"/>
					<rect x="49.8" y="109.5" class="st4" width="2.9" height="2.9"/>
					<polygon class="st4" points="46.9,110.9 46.9,113.1 42.5,113.1 42.5,110.9 44.7,110.9 					"/>
					<polygon class="st4" points="68.8,110.9 68.8,113.1 64.4,113.1 64.4,110.9 66.6,110.9 					"/>
					<rect x="53.5" y="101.4" class="st4" width="4.4" height="2.2"/>
					<polygon class="st4" points="62.3,103.6 62.3,105.8 49.1,105.8 49.1,103.6 53.5,103.6 57.9,103.6 					"/>
					<polygon class="st4" points="42.5,113.1 40.3,113.1 40.3,133.5 46.9,133.5 46.9,113.1 					"/>
					<polygon class="st4" points="68.8,113.1 64.4,113.1 64.4,133.5 71,133.5 71,113.1 					"/>
					<path class="st0" d="M70.8,106.7c0.1,0.1,0.2,0.3,0.2,0.5s-0.1,0.4-0.2,0.5s-0.3,0.2-0.5,0.2c-0.4,0-0.8-0.4-0.8-0.8
						c0-0.2,0.1-0.4,0.2-0.5s0.3-0.2,0.5-0.2C70.4,106.5,70.7,106.6,70.8,106.7z"/>
					<rect x="68.1" y="126.2" class="st0" width="1.5" height="3"/>
					<rect x="68.1" y="122.6" class="st0" width="1.5" height="2.9"/>
					<rect x="68.1" y="119" class="st0" width="1.5" height="2.9"/>
					<rect x="68.1" y="115.3" class="st0" width="1.5" height="2.9"/>
					<rect x="65.9" y="126.3" class="st0" width="1.5" height="2.9"/>
					<rect x="65.9" y="122.6" class="st0" width="1.5" height="2.9"/>
					<rect x="65.9" y="118.9" class="st0" width="1.5" height="2.9"/>
					<rect x="65.9" y="115.3" class="st0" width="1.5" height="2.9"/>
					<path class="st0" d="M64.9,100.9c0.1,0.1,0.2,0.3,0.2,0.5s-0.1,0.4-0.2,0.5s-0.3,0.2-0.5,0.2c-0.4,0-0.8-0.4-0.8-0.8
						c0-0.2,0.1-0.4,0.2-0.5c0.1-0.1,0.3-0.2,0.5-0.2C64.6,100.7,64.8,100.8,64.9,100.9z"/>
					<path class="st0" d="M46.7,100.9c0.1,0.1,0.2,0.3,0.2,0.5s-0.1,0.4-0.2,0.5c-0.2,0.1-0.3,0.2-0.5,0.2c-0.4,0-0.8-0.4-0.8-0.8
						c0-0.2,0.1-0.4,0.2-0.5c0.1-0.1,0.3-0.2,0.5-0.2C46.4,100.7,46.5,100.8,46.7,100.9z"/>
					<rect x="43.9" y="126.2" class="st0" width="1.5" height="2.9"/>
					<rect x="43.9" y="122.5" class="st0" width="1.5" height="2.9"/>
					<rect x="43.9" y="118.8" class="st0" width="1.5" height="2.9"/>
					<rect x="44" y="115.3" class="st0" width="1.5" height="2.9"/>
					<rect x="41.8" y="126.2" class="st0" width="1.5" height="2.9"/>
					<rect x="41.8" y="122.6" class="st0" width="1.5" height="2.9"/>
					<rect x="41.8" y="118.9" class="st0" width="1.5" height="2.9"/>
					<rect x="41.8" y="115.3" class="st0" width="1.5" height="2.9"/>
					<path class="st0" d="M41.6,108.9c0.1,0.1,0.2,0.3,0.2,0.5s-0.1,0.4-0.2,0.5c-0.2,0.1-0.3,0.2-0.5,0.2c-0.4,0-0.8-0.4-0.8-0.8
						c0-0.2,0.1-0.4,0.2-0.5c0.2-0.1,0.4-0.2,0.5-0.2C41.2,108.7,41.5,108.8,41.6,108.9z"/>
					<path class="st0" d="M64.4,111.6c-0.4,0-0.8-0.4-0.8-0.8v-4.4h-1.5c-0.4,0-0.8-0.4-0.8-0.8s0.4-0.8,0.8-0.8h2.2
						c0.4,0,0.8,0.4,0.8,0.8v5.1C65.2,111.3,64.8,111.6,64.4,111.6z"/>
					<path class="st0" d="M46.9,111.6c-0.4,0-0.8-0.4-0.8-0.8v-5.1c0-0.4,0.4-0.8,0.8-0.8h2.2c0.4,0,0.8,0.4,0.8,0.8
						s-0.4,0.8-0.8,0.8h-1.5v4.4C47.6,111.3,47.3,111.6,46.9,111.6z"/>
					<path class="st0" d="M62.3,106.5H49.1c-0.4,0-0.8-0.3-0.8-0.7v-2.2c0-0.4,0.4-0.7,0.8-0.7h4.4c0.4,0,0.8,0.3,0.8,0.7
						c0,0.4-0.4,0.7-0.8,0.7h-3.7v0.7h11.7v-0.7h-3.7c-0.4,0-0.8-0.3-0.8-0.7c0-0.4,0.4-0.7,0.8-0.7h4.4c0.4,0,0.8,0.3,0.8,0.7v2.2
						C63,106.2,62.6,106.5,62.3,106.5z"/>
					<path class="st0" d="M57.9,104.4h-4.4c-0.4,0-0.8-0.4-0.8-0.8v-2.2c0-0.4,0.4-0.8,0.8-0.8h4.4c0.4,0,0.8,0.4,0.8,0.8v2.2
						C58.6,104,58.2,104.4,57.9,104.4z M54.2,102.9h2.9v-0.8h-2.9V102.9z"/>
					<path class="st0" d="M72.5,134.3H71c-0.4,0-0.8-0.4-0.8-0.8s0.4-0.8,0.8-0.8h1.5c0.4,0,0.8,0.4,0.8,0.8
						C73.2,134,72.8,134.3,72.5,134.3z"/>
					<path class="st0" d="M64.4,134.3H46.9c-0.4,0-0.8-0.4-0.8-0.8s0.4-0.8,0.8-0.8h17.5c0.4,0,0.8,0.4,0.8,0.8
						S64.8,134.3,64.4,134.3z"/>
					<path class="st0" d="M40.3,134.2h-1.5c-0.4,0-0.8-0.4-0.8-0.8c0-0.4,0.4-0.8,0.8-0.8h1.5c0.4,0,0.8,0.4,0.8,0.8
						C41,133.9,40.7,134.2,40.3,134.2z"/>
					<path class="st0" d="M49.8,127.5c-0.4,0-0.8-0.3-0.8-0.6v-17.4c0-0.3,0.4-0.6,0.8-0.6c0.4,0,0.8,0.3,0.8,0.6v17.4
						C50.6,127.2,50.2,127.5,49.8,127.5z"/>
					<path class="st0" d="M52.7,127.5c-0.4,0-0.8-0.3-0.8-0.6v-17.2c0-0.3,0.4-0.6,0.8-0.6c0.4,0,0.8,0.3,0.8,0.6v17.2
						C53.4,127.2,53.1,127.5,52.7,127.5z"/>
					<path class="st0" d="M55.6,127.5c-0.4,0-0.8-0.3-0.8-0.6v-17.2c0-0.3,0.4-0.6,0.8-0.6c0.4,0,0.8,0.3,0.8,0.6v17.2
						C56.4,127.2,56,127.5,55.6,127.5z"/>
					<path class="st0" d="M58.6,127.5c-0.4,0-0.8-0.3-0.8-0.6v-17.2c0-0.3,0.4-0.6,0.8-0.6c0.4,0,0.8,0.3,0.8,0.6v17.2
						C59.3,127.2,59,127.5,58.6,127.5z"/>
					<path class="st0" d="M61.5,127.5c-0.4,0-0.8-0.3-0.8-0.6v-17.4c0-0.3,0.4-0.6,0.8-0.6c0.4,0,0.8,0.3,0.8,0.6v17.4
						C62.3,127.2,61.9,127.5,61.5,127.5z"/>
					<path class="st0" d="M61.6,110.2H49.7c-0.4,0-0.7-0.4-0.7-0.8s0.3-0.8,0.7-0.8h11.8c0.4,0,0.7,0.4,0.7,0.8
						S61.9,110.2,61.6,110.2z"/>
					<path class="st0" d="M61.6,113.1H49.8c-0.4,0-0.7-0.4-0.7-0.8s0.3-0.8,0.7-0.8h11.8c0.4,0,0.7,0.4,0.7,0.8
						S61.9,113.1,61.6,113.1z"/>
					<path class="st0" d="M61.6,116H49.8c-0.4,0-0.7-0.4-0.7-0.8s0.3-0.8,0.7-0.8h11.8c0.4,0,0.7,0.4,0.7,0.8
						C62.3,115.7,61.9,116,61.6,116z"/>
					<path class="st0" d="M61.6,118.9H49.8c-0.4,0-0.7-0.4-0.7-0.8s0.3-0.8,0.7-0.8h11.8c0.4,0,0.7,0.4,0.7,0.8
						S61.9,118.9,61.6,118.9z"/>
					<path class="st0" d="M61.6,121.9H49.8c-0.4,0-0.7-0.4-0.7-0.8s0.3-0.8,0.7-0.8h11.8c0.4,0,0.7,0.4,0.7,0.8
						S61.9,121.9,61.6,121.9z"/>
					<path class="st0" d="M61.6,124.8H49.8c-0.4,0-0.7-0.4-0.7-0.8s0.3-0.8,0.7-0.8h11.8c0.4,0,0.7,0.4,0.7,0.8
						S61.9,124.8,61.6,124.8z"/>
					<path class="st0" d="M61.6,127.7H49.8c-0.4,0-0.7-0.4-0.7-0.8s0.3-0.8,0.7-0.8h11.8c0.4,0,0.7,0.4,0.7,0.8
						C62.2,127.4,61.9,127.7,61.6,127.7z"/>
					<path class="st0" d="M71,134.3h-6.6c-0.4,0-0.8-0.4-0.8-0.8V113c0-0.4,0.4-0.8,0.8-0.8s0.8,0.4,0.8,0.8v19.7h5.1v-18.9h-1.5
						c-0.4,0-0.8-0.4-0.8-0.8s0.4-0.8,0.8-0.8H71c0.4,0,0.8,0.4,0.8,0.8v20.5C71.7,134,71.4,134.3,71,134.3z"/>
					<path class="st0" d="M68.8,113.9h-4.4c-0.4,0-0.8-0.4-0.8-0.8v-2.2c0-0.4,0.4-0.8,0.8-0.8h4.4c0.4,0,0.8,0.4,0.8,0.8v2.2
						C69.6,113.5,69.2,113.9,68.8,113.9z M65.2,112.4h2.9v-0.8h-2.9V112.4z"/>
					<path class="st0" d="M46.9,134.3h-6.5c-0.4,0-0.8-0.4-0.8-0.8V113c0-0.4,0.4-0.8,0.8-0.8h2.2c0.4,0,0.8,0.4,0.8,0.8
						s-0.4,0.8-0.8,0.8H41v19h5.1V113c0-0.4,0.4-7,0.8-7c0.4,0,0.8-0.1,0.8,0.3v27.2C47.6,134,47.3,134.3,46.9,134.3z"/>
					<path class="st0" d="M46.9,113.9h-4.4c-0.4,0-0.8-0.4-0.8-0.8v-2.2c0-0.4,0.4-0.8,0.8-0.8h4.4c0.4,0,0.8,0.4,0.8,0.8v2.2
						C47.6,113.5,47.3,113.9,46.9,113.9z M43.3,112.4h2.9v-0.8h-2.9V112.4z"/>
					<path class="st0" d="M66.6,111.6c-0.4,0-0.8-0.4-0.8-0.8v-2.2c0-0.4,0.4-0.8,0.8-0.8s0.8,0.4,0.8,0.8v2.2
						C67.3,111.3,67,111.6,66.6,111.6z"/>
					<path class="st0" d="M44.7,111.6c-0.4,0-0.8-0.4-0.8-0.8v-2.2c0-0.4,0.4-0.8,0.8-0.8c0.4,0,0.8,0.4,0.8,0.8v2.2
						C45.4,111.3,45.1,111.6,44.7,111.6z"/>
					<path class="st0" d="M41.4,107.2c-1,0-1.8-0.8-1.8-1.8s0.8-1.8,1.8-1.8s1.8,0.8,1.8,1.8C43.2,106.4,42.4,107.2,41.4,107.2z
						 M41.4,105.1c-0.2,0-0.4,0.2-0.4,0.4c0,0.2,0.2,0.4,0.4,0.4s0.4-0.2,0.4-0.4C41.8,105.2,41.6,105.1,41.4,105.1z"/>
					<path class="st0" d="M70.3,105.8c-1.2,0-2.2-1-2.2-2.2s1-2.2,2.2-2.2s2.2,1,2.2,2.2S71.5,105.8,70.3,105.8z M70.3,102.9
						c-0.4,0-0.8,0.4-0.8,0.8s0.4,0.8,0.8,0.8s0.8-0.4,0.8-0.8S70.7,102.9,70.3,102.9z"/>
				</g>
			</g>
			<g id="Layer_1_00000041988186740736685770000017316597566241200308_">
			</g>
		</g>
	</g>
</g>
<g>
	<g id="_x37_26_x2C__Estate_x2C__Favorite_x2C__Real_00000169528870988408732000000003428733038292562827_">
		<g>
			<path class="st4" d="M117.6,101.7l-14.9,10.5v11.2c0.8,0.4,0.3,8.4,0.8,9.4c1.9,0,1.1-0.6,2.5,0.6h6.2v-3.2h1.6v-9.6h6.3v9.6h1.6
				v3.2h9.6v-21.3L117.6,101.7z"/>
			<path class="st5" d="M128.5,98.6c0.6,0,1.2,0.5,1.2,1.2c0,0.6-0.5,1.2-1.2,1.2c-0.6,0-1.2-0.5-1.2-1.2S127.8,98.6,128.5,98.6z"/>
			<rect x="123.4" y="116.8" class="st3" width="4" height="3.2"/>
			<rect x="123.4" y="119.9" class="st3" width="4" height="4"/>
			<rect x="105.1" y="116.8" class="st3" width="4" height="3.2"/>
			<polygon class="st3" points="121.8,130.3 121.8,133.5 112.3,133.5 112.3,130.3 113.8,130.3 120.2,130.3 			"/>
			<rect x="113.8" y="120.6" class="st3" width="6.3" height="9.6"/>
			<path class="st3" d="M117.4,107.3c1.5,0,2.8,1.3,2.8,2.8s-1.3,2.8-2.8,2.8s-2.8-1.3-2.8-2.8C114.6,108.5,115.9,107.3,117.4,107.3
				z"/>
			<path class="st0" d="M133.6,100.2c0.4,0,0.8,0.4,0.8,0.8s-0.4,0.8-0.8,0.8s-0.8-0.4-0.8-0.8C132.9,100.5,133.2,100.2,133.6,100.2
				z"/>
			<path class="st0" d="M125.7,103.3c0.4,0,0.8,0.4,0.8,0.8s-0.4,0.8-0.8,0.8s-0.8-0.4-0.8-0.8C124.9,103.6,125.3,103.3,125.7,103.3
				z"/>
			<path class="st0" d="M122.5,99.3c0.4,0,0.8,0.4,0.8,0.8s-0.4,0.8-0.8,0.8s-0.8-0.4-0.8-0.8C121.8,99.7,122.1,99.3,122.5,99.3z"/>
			<path class="st0" d="M113.8,98.6c0.4,0,0.8,0.4,0.8,0.8s-0.4,0.8-0.8,0.8s-0.8-0.4-0.8-0.9C113,98.9,113.4,98.6,113.8,98.6z"/>
			<path class="st0" d="M100.3,99.3c0.4,0,0.8,0.4,0.8,0.8s-0.4,0.8-0.8,0.8s-0.8-0.4-0.8-0.8C99.6,99.7,99.9,99.3,100.3,99.3z"/>
			<path class="st0" d="M117.4,113.6c-2,0-3.6-1.6-3.6-3.6s1.6-3.6,3.6-3.6s3.6,1.6,3.6,3.6C120.9,112,119.4,113.6,117.4,113.6z
				 M117.4,108.1c-1.1,0-2,0.9-2,2s0.9,2,2,2s2-0.9,2-2S118.5,108.1,117.4,108.1z"/>
			<path class="st0" d="M134.5,115.3c-0.2,0-0.3-0.1-0.5-0.2l-16.3-12.4L100,115.1c-0.3,0.2-0.6,0.2-0.8,0.1
				c-0.3-0.1-0.4-0.4-0.4-0.7v-10.3c0-0.4,0.4-0.8,0.8-0.8h4.8v-2.3c0-0.4,0.4-0.8,0.8-0.8h2.4c0.4,0,0.8,0.4,0.8,0.8v2.4h0.8
				c0.4,0,0.8,0.4,0.8,0.8s-0.4,0.8-0.8,0.8h-1.5c-0.4,0-0.8-0.4-0.8-0.8v-2.4h-0.8v2.3c0,0.4-0.4,0.8-0.8,0.8h-4.8v8.1l16.9-11.9
				c0.3-0.2,0.6-0.2,1,0l15.5,11.7V105h-5.5c-0.4,0-0.8-0.4-0.8-0.8s0.4-0.8,0.8-0.8h6.2c0.4,0,0.8,0.4,0.8,0.8v10.3
				c0,0.3-0.2,0.6-0.4,0.7C134.7,115.2,134.5,115.3,134.5,115.3z"/>
			<path class="st0" d="M120.2,130.7c-0.4,0-0.8-0.4-0.8-0.8v-8.4h-4.8v8.5c0,0.4-0.4,0.8-0.8,0.8s-0.8-0.4-0.8-0.8v-9.3
				c0-0.4,0.4-0.8,0.8-0.8h6.3c0.4,0,0.8,0.4,0.8,0.8v9.2C120.9,130.3,120.6,130.7,120.2,130.7z"/>
			<path class="st0" d="M121.8,134.2c-0.4,0-0.8-0.4-0.8-0.8V131h-8v2.4c0,0.4-0.4,0.8-0.8,0.8s-0.8-0.4-0.8-0.8v-3.2
				c0-0.4,0.4-0.8,0.8-0.8h9.5c0.4,0,0.8,0.4,0.8,0.8v3.2C122.5,133.8,122.2,134.2,121.8,134.2z"/>
			<path class="st0" d="M127.3,124.7c-0.4,0-0.8-0.4-0.8-0.8v-6.3h-2.4v6.3c0,0.4-0.4,0.8-0.8,0.8s-0.7-0.4-0.7-0.8v-7.2
				c0-0.4,0.4-0.8,0.8-0.8h4c0.4,0,0.8,0.4,0.8,0.8v7.2C128.1,124.3,127.7,124.7,127.3,124.7z"/>
			<path class="st0" d="M128.1,124.7h-5.6c-0.4,0-0.8-0.4-0.8-0.8s0.4-0.8,0.8-0.8h5.6c0.4,0,0.8,0.4,0.8,0.8
				C128.9,124.4,128.5,124.7,128.1,124.7z"/>
			<path class="st0" d="M127.3,120.8h-3.7c-0.4,0-0.8-0.4-0.8-0.8s0.4-0.8,0.8-0.8h3.7c0.4,0,0.8,0.4,0.8,0.8
				S127.8,120.8,127.3,120.8z"/>
			<path class="st0" d="M109.1,121.5c-0.4,0-0.8-0.4-0.8-0.8v-3.2h-2.4v3.2c0,0.4-0.4,0.8-0.8,0.8s-0.8-0.4-0.8-0.8v-3.9
				c0-0.4,0.4-0.8,0.8-0.8h4c0.4,0,0.8,0.4,0.8,0.8v4C109.8,121.2,109.5,121.5,109.1,121.5z"/>
			<path class="st0" d="M109,121.5h-3.9c-0.4,0-0.8-0.4-0.8-0.8s0.4-0.8,0.8-0.8h3.9c0.4,0,0.8,0.4,0.8,0.8S109.4,121.5,109,121.5z"
				/>
			<path class="st0" d="M128.5,101.7c-1.1,0-2-0.9-2-2s0.9-2,2-2c1.1,0,2,0.9,2,2C130.5,100.8,129.6,101.7,128.5,101.7z M128.5,99.3
				c-0.2,0-0.4,0.2-0.4,0.4c0,0.2,0.2,0.4,0.4,0.4s0.4-0.2,0.4-0.4S128.7,99.3,128.5,99.3z"/>
			<path class="st0" d="M102.7,134.2c-0.4,0-0.8-0.7-0.8-1.5v-19.9c0-0.8,0.4-1.5,0.8-1.5s0.8,0.7,0.8,1.5v20
				C103.5,133.7,103.1,134.2,102.7,134.2z"/>
			<path class="st0" d="M131.1,134.2h-29.8c-0.5,0-1-0.4-1-0.8c0-0.4,0.4-0.8,1-0.8h28.9v-20.5c0-0.4,0.4-0.8,1-0.8
				c0.5,0,1,0.4,1,0.8v21.4C132.1,133.8,131.7,134.2,131.1,134.2z"/>
			<path class="st0" d="M133.6,134.2h-2.3c-0.4,0-0.8-0.4-0.8-0.8c0-0.4,0.4-0.8,0.8-0.8h2.3c0.4,0,0.8,0.4,0.8,0.8
				C134.5,133.8,134.1,134.2,133.6,134.2z"/>
			<path class="st0" d="M120.2,119.2h-6.3c-0.4,0-0.8-0.4-0.8-0.8s0.4-0.8,0.8-0.8h6.3c0.4,0,0.8,0.4,0.8,0.8
				C121,118.8,120.6,119.2,120.2,119.2z"/>
			<path class="st0" d="M117.8,116.8h-1.6c-0.4,0-0.8-0.4-0.8-0.8s0.4-0.8,0.8-0.8h1.6c0.4,0,0.8,0.4,0.8,0.8
				C118.6,116.4,118.2,116.8,117.8,116.8z"/>
		</g>
	</g>
	<g id="Layer_1_00000096019727802554429670000005517949613031463096_">
	</g>
</g>
</svg>
